<!-- Generator: Adobe Illustrator 18.1.1, SVG Export Plug-In . SVG Version: 6.00 Build 0)  -->
<svg version="1.1" id="Capa_1" xmlns="http://www.w3.org/2000/svg" xmlns:xlink="http://www.w3.org/1999/xlink" x="0px" y="0px"
	 viewBox="0 0 500 750" style="enable-background:new 0 0 500 750;" xml:space="preserve">
<g>
	<g>
		<path style="fill:#b3b3b2;" d="M480.215,27.191C462.284,9.063,440.371,0,414.473,0c-25.895,0-48.012,8.965-66.34,26.895
			l-84.27,84.867c-13.945,13.547-22.512,29.982-25.699,49.307s-0.996,37.354,6.574,54.088l-29.285,29.285
			c-17.133-7.57-35.262-9.662-54.387-6.275s-35.66,11.854-49.605,25.4l-84.27,84.867c-17.929,17.93-26.894,39.844-26.894,65.74
			c0,25.898,8.965,47.912,26.895,66.041s39.844,27.193,65.742,27.193s48.012-9.164,66.34-27.492l84.27-84.27
			c13.945-13.945,22.511-30.48,25.699-49.605s0.996-37.254-6.574-54.387l29.285-28.688c17.133,7.57,35.262,9.662,54.387,6.275
			s35.66-12.053,49.605-25.998l84.27-84.27c17.934-17.93,26.896-39.844,26.896-65.742S498.146,45.32,480.215,27.191z
			 M213.062,365.166l-84.27,84.867c-9.961,9.961-21.814,14.938-35.561,14.938c-13.747,0-25.6-4.979-35.561-14.938
			c-9.961-9.961-14.941-21.814-14.941-35.563s4.98-25.6,14.941-35.561l84.27-84.867c9.962-9.957,21.915-14.938,35.861-14.938
			c0.398,0,1.395,0.196,2.988,0.598l-39.445,38.848c-6.375,6.375-9.562,14.244-9.562,23.607s3.188,17.332,9.562,23.906
			c6.374,6.571,14.244,9.858,23.607,9.858c9.363,0,17.232-3.387,23.607-10.16l39.445-38.848
			C228.801,341.658,223.82,354.408,213.062,365.166z M449.736,128.497l-84.271,84.867c-10.758,10.758-23.707,15.539-38.848,14.344
			l39.445-38.848c6.375-6.773,9.563-14.843,9.563-24.205c0-9.363-3.188-17.232-9.563-23.607c-6.373-6.375-14.244-9.562-23.607-9.562
			s-17.229,3.188-23.604,9.562l-39.447,39.445c-0.799-14.742,4.184-27.492,14.939-38.25l84.271-84.867
			c9.959-9.962,21.813-14.942,35.559-14.942c13.748,0,25.604,4.98,35.563,14.941c9.961,9.961,14.939,21.814,14.939,35.561
			S459.697,118.536,449.736,128.497z"
			transform=" rotate(-45 400 200)"/>
	</g>
</g>
<g>
</g>
<g>
</g>
<g>
</g>
<g>
</g>
<g>
</g>
<g>
</g>
<g>
</g>
<g>
</g>
<g>
</g>
<g>
</g>
<g>
</g>
<g>
</g>
<g>
</g>
<g>
</g>
<g>
</g>
</svg>
