<?xml version="1.0" standalone="no"?>
<!DOCTYPE svg PUBLIC "-//W3C//DTD SVG 20010904//EN"
 "http://www.w3.org/TR/2001/REC-SVG-20010904/DTD/svg10.dtd">
<svg version="1.0" xmlns="http://www.w3.org/2000/svg"
 width="600.000000pt" height="1200.000000pt" viewBox="0 0 1300.000000 600.000000"
 preserveAspectRatio="xMidYMid meet">
<metadata>
Created by potrace 1.15, written by Peter Selinger 2001-2017
</metadata>
<g transform="translate(0.000000,1153.000000) scale(0.100000,-0.100000)"
fill="#000000" stroke="none">
<path d="M10280 11514 c-663 -88 -1298 -522 -1789 -1219 -463 -658 -857 -1521
-1069 -2340 l-47 -182 -127 -67 c-137 -70 -302 -170 -408 -244 -661 -467
-1264 -1073 -1714 -1724 -37 -54 -74 -98 -82 -98 -7 0 -71 10 -141 22 -107 18
-167 22 -363 22 -257 0 -370 -9 -650 -55 -194 -32 -531 -114 -710 -173 -588
-193 -1232 -500 -1695 -809 -883 -589 -1407 -1350 -1476 -2146 -26 -294 26
-686 127 -954 202 -535 494 -920 894 -1180 279 -180 604 -291 1030 -349 123
-16 571 -17 710 0 761 92 1576 376 2353 822 423 242 689 439 980 728 211 209
396 444 511 647 l45 80 108 39 c636 226 1190 590 1777 1166 241 237 632 663
699 763 29 44 35 94 15 116 -11 11 -5 12 35 7 524 -75 957 14 1414 290 205
125 360 249 559 449 484 488 894 1210 1207 2131 231 678 321 1164 321 1739 0
302 -13 458 -60 695 -116 588 -453 1122 -894 1415 -483 321 -1069 474 -1560
409z m441 -1390 c165 -31 311 -107 437 -228 282 -269 375 -769 261 -1402 -100
-558 -286 -1100 -560 -1633 -171 -331 -333 -566 -524 -756 -90 -90 -271 -233
-281 -222 -2 1 13 56 31 122 46 159 81 319 96 438 17 141 7 404 -21 542 -72
361 -291 682 -609 892 -165 109 -370 186 -553 208 -32 4 -58 11 -58 16 0 5 7
26 15 46 8 21 48 130 90 242 261 702 506 1129 825 1434 56 55 130 119 164 144
196 145 448 203 687 157z m-1969 -3335 c44 -24 170 -155 196 -204 29 -55 31
-105 22 -381 l-5 -130 29 -45 c16 -24 57 -71 90 -104 68 -66 62 -64 -38 16
-83 66 -183 188 -227 278 -34 68 -93 227 -110 294 -5 21 -13 87 -18 147 -5 60
-16 122 -24 138 l-15 30 39 -13 c21 -8 48 -19 61 -26z m-1231 -719 c66 -424
215 -748 468 -1021 l79 -86 -155 -179 c-393 -452 -629 -685 -944 -932 l-66
-51 -17 77 c-85 365 -290 742 -560 1029 l-86 91 77 99 c263 338 639 734 1008
1061 l160 142 8 -53 c4 -28 17 -108 28 -177z m-3051 -1777 c0 -5 -7 -44 -15
-88 -53 -272 -74 -580 -57 -831 22 -332 79 -542 201 -731 58 -91 179 -213 268
-270 l61 -40 -81 -60 c-124 -90 -188 -132 -345 -222 -138 -79 -472 -250 -597
-306 -556 -247 -1137 -388 -1544 -372 -164 6 -261 23 -404 71 -330 112 -552
386 -598 740 -10 77 -10 118 0 203 31 265 140 465 401 736 293 305 659 539
1250 802 501 222 853 326 1250 368 68 7 210 7 210 0z m1117 -658 c20 -138 22
-320 5 -337 -9 -9 -12 -2 -12 29 0 25 -11 62 -30 99 -57 111 -59 221 -8 378
l23 71 2 -60 c2 -33 11 -114 20 -180z"/>
</g>
</svg>
